<svg width="18" height="20" fill="none" xmlns="http://www.w3.org/2000/svg"><path d="M4.111 8.611h1.556v1.667H4.11V8.61zM15 4.444v11.667c0 .917-.7 1.667-1.556 1.667H2.556c-.413 0-.809-.176-1.1-.488A1.73 1.73 0 011 16.11l.008-11.667c0-.916.684-1.666 1.548-1.666h.777V1.11H4.89v1.667h6.222V1.11h1.556v1.667h.777c.856 0 1.556.75 1.556 1.666zM2.556 6.111h10.888V4.444H2.556v1.667zm10.888 10V7.778H2.556v8.333h10.888zm-3.11-5.833h1.555V8.61h-1.556v1.667zm-3.112 0h1.556V8.61H7.222v1.667z" fill="#7688A4"/></svg>